<svg xmlns="http://www.w3.org/2000/svg" version="1.1" xmlns:xlink="http://www.w3.org/1999/xlink" xmlns:svgjs="http://svgjs.dev/svgjs" viewBox="0 0 800 800"><defs><linearGradient x1="50%" y1="0%" x2="50%" y2="100%" id="ssscribble-grad"><stop stop-color="hsl(206, 75%, 49%)" stop-opacity="1" offset="0%"></stop><stop stop-color="hsl(331, 90%, 56%)" stop-opacity="1" offset="100%"></stop></linearGradient></defs><g fill="none" stroke-width="1.5" stroke="url(#ssscribble-grad)" stroke-linecap="round" stroke-dasharray="149"><path d="M1428.96 413.44C1402.88 430.52 1371.56 447.83 1346.81 465.35 1337.91 482.86 1347.33 500.57 1370.77 518.46 1422.07 554.19 1418.01 590.53 1359.31 627.19 1313.96 663.55 1328.45 699.84 1373.11 735.57 1385.18 770.36 1338.74 803.8 1275.89 835.17 1252.51 864.63 1277.64 891.12 1308.92 914.01 1302.33 934.53 1249.5 951.38 1186.55 964.78 1153.78 977.31 1161.61 988.23 1185.17 998.94 1192.47 1012.69 1162.45 1029.3 1104.97 1050.23 1044.27 1077.19 1004.24 1109.17 991.38 1145.3 998.96 1184.12 1007.16 1222.49 1000.75 1257.1 974.56 1285.67 929.51 1305.12 875.29 1314.04 820.02 1314.73 772.56 1307.99 735.57 1297.64 709.1 1290.34 689.88 1288.68 673.42 1296.01 659.61 1314.72 642.97 1341.7 622.19 1372.74 600.07 1403.06 573.7 1425.43 543.99 1434.86 528.88 1434.58 513.17 1430.62 496.94 1423.25 480.66 1413.49 463.96 1401.57 446.87 1388.33 429.79 1375.2 412.52 1362.76 395.05 1351.83 377.53 1343.44 359.72 1337.73 341.54 1334.92 304.69 1339.24 265.48 1352.74 223.15 1370.33 179.48 1387.8 132.82 1397.38 84.63 1395.32 39.09 1381.79 -2.37 1356.6 -35.12 1323.53 -57.35 1288.08 -67.64 1254.11 -68.48 1225.42 -70.38 1205.26 -79.79 1192.97 -106.27 1187.09 -152.53 1186.85 -211.6 1187.39 -268.07 1185.57 -304.11 1180.64 -310.99 1168.96 -295.09 1150.01 -282.39 1125 -295.02 1093.71 -342.68 1057.82 -406.59 1019.17 -452.47 979.06 -455.28 939.03 -427.91 900.12 -408.2 863.03 -432.09 828.06 -493.85 795.56 -546.83 765.01 -548.49 735.9 -510.7 708.67 -486.5 681.96 -517.86 655.17 -581.8 629.27 -612.61 602.54 -580.45 574.65 -534.93 547.02 -540.93 517.87 -598.99 487.11 -625.81 471.74 -637.79 455.94 -630.6 439.72 -607.57 423.5 -577.11 406.84 -551.03 389.76 -540.04 372.67 -547.87 355.35 -571.03 337.83 -600.88 320.31 -625.25 302.58 -634.76 284.66 -601.35 248.87 -540.39 212.43 -524.41 175.61 -565.87 139.06 -602.15 102.48 -580.28 66.38 -517.36 31.17 -474.84 -2.8 -486.39 -34.8 -525.99 -64.91 -535.68 -92.1 -493.54 -115.72 -428.7 -136.86 -388.71 -154.24 -392.8 -167.99 -421.58 -180.64 -432.54 -191.39 -403.59 -201.63 -344.29 -214.64 -284.59 -230.26 -250.37 -250.05 -248.4 -275.89 -262.41 -306.86 -269.28 -342.27 -255.08 -380.81 -214.91 -419.39 -159.41 -454.74 -101.44 -484.44 -54.23 -505.26 -22.43 -515.59 -2.06 -514.32 24.63 -491.36 56.77 -495.64 87.08 -512.86 123.06 -538.76 161.8 -569.42 202.83 -600.2 243.57 -623.76 282.63 -634.84 302.26 -635.41 321.32 -632.25 339.74 -625.58 358.18 -616.36 375.96 -604.79 393.04 -591.66 410.13 -578.42 426.32 -565.63 441.64 -554.16 456.96 -545.08 471.42 -538.56 485.07 -534.9 512.57 -537.56 537.42 -549.88 560.84 -567.01 586.54 -584.86 613.87 -595.53 645.56 -594.96 683.4 -583.01 728.13 -559.09 779.31 -526.75 831.77 -491.34 881.68 -456.76 921.34 -426.97 949.28 -398.58 950.13 -383.92 990.17 -382.54 1045.94 -378.32 1106.87 -367.65 1149.68 -349.83 1160.25 -325.97 1143.21 -295.66 1124.26 -260.51 1135.66 -222.33 1184.67 -182.38 1249.03 -142.25 1288.7 -102.98 1281.83 -65.35 1247.47 -29.76 1235.81 3.45 1273.35 34.71 1338 64.47 1374.6 92.32 1354.32 119.57 1310.69 146.78 1308.1 173.06 1360.7 200.06 1415.35 228.15 1412.56 255.94 1361.65 285.19 1335 316.02 1347.89 331.41 1374.82 347.23 1406.38 363.46 1431.26 379.69 1439.95 396.35 1428.96 413.44Q1428.96 413.44 1428.96 413.44" opacity="0.71"></path><path d="M1373.96 445.24C1320.13 477.52 1283.55 509.94 1306.44 542.32 1358.01 574.58 1370.72 606.56 1325.81 637.92 1269.7 668.8 1257.4 698.61 1291.94 726.85 1327.57 754.1 1315.85 779.25 1260.54 801.88 1206.19 823.22 1192.53 841.87 1217.41 857.87 1246.49 873.24 1240.32 886.84 1193.91 899.43 1132.8 913.62 1091.04 928.82 1083.69 946.22 1102.34 967.89 1118.81 993.33 1111.11 1022.84 1074.29 1056.49 1018.33 1092.7 962.69 1129.69 922.37 1165.63 903.66 1197.7 900.9 1223.34 906.34 1241.82 906.21 1251.39 893.6 1252.29 867.69 1248.09 829.11 1240.1 783.46 1232.06 734.13 1229.56 686.65 1233.92 643.47 1246.92 604.18 1269.38 569.71 1297.63 538.48 1327.41 509.89 1354.66 482.05 1373.38 453.51 1379.85 425.56 1374.58 395.66 1357.68 363.39 1333.33 331.12 1309.39 297.23 1290.34 262.32 1280.21 228 1281.88 193.89 1292.37 161.61 1307.82 131.98 1325.08 106.66 1337.17 87.39 1340.17 72.02 1333.47 62.17 1315.42 55.58 1288.21 45.3 1255.99 29.33 1221.77 2.26 1189.41 -38.11 1162.57 -89.43 1142.15 -144.61 1128.29 -206.27 1119.9 -211.5 1113.11 -211.16 1101.47 -245.76 1087.72 -302.52 1067.82 -359.27 1042.34 -390.04 1012.67 -384.21 979.12 -356.7 943.09 -343.9 905.67 -369 867.77 -426.88 830.28 -480.54 793.56 -493.19 758.06 -462.49 723.91 -430.84 691.12 -440.14 659.45 -493.98 628.6 -546.73 598.75 -549.84 569.16 -506.18 539.5 -473.73 510.31 -495.93 480.58 -553.89 450.13 -583.17 419.8 -549.86 388.51 -496.03 356.24 -491.56 323.96 -539.76 291.47 -578.24 258.94 -558.61 226.53 -499.94 194.31 -466.01 162.64 -489.14 131.43 -533.58 101.23 -542.01 72.52 -498.2 44.82 -438.52 19.16 -412.9 -3.96 -434.93 -25.74 -469.15 -44.79 -471.78 -61.06 -430.33 -76.56 -368.84 -90.11 -325.99 -102.43 -322.12 -116.14 -344.26 -130.63 -361.56 -147.14 -351.29 -167.83 -307.83 -192.24 -248.9 -220.8 -197.11 -253.71 -168.88 -289.48 -164.11 -326.41 -173.97 -362.71 -180.3 -395.56 -171.37 -422.32 -144.22 -442.07 -100.64 -452.92 -49.31 -454.88 3.03 -451.3 48.68 -443.39 85.19 -434.82 112.43 -431.26 132.72 -434.23 149.84 -445.73 163.81 -466.95 179.57 -494.45 198.62 -524.16 218.35 -552.07 241.98 -572.06 269 -580.12 296.51 -576.38 326.6 -560.6 358.88 -536.66 391.15 -512.31 424.84 -492.14 460.19 -480.47 496.04 -480.56 534.35 -489.78 575.49 -504.57 617.3 -521.89 661.33 -534.73 705.91 -538.99 747.35 -533.77 784.38 -517.13 813.07 -490.97 832.49 -459.27 841.38 -424.98 842.03 -392 843.69 -364.1 851.56 -342.4 874.15 -327.27 914.96 -319.3 969.33 -315.44 1025.36 -313.26 1074.82 -310.11 1055.15 -277.2 1081.41 -243.25 1136.81 -214.48 1194.89 -181.64 1224.62 -146.09 1215.38 -108.94 1185.17 -71.09 1172.5 -33.47 1203.93 3.52 1264.44 39.4 1310.13 74 1308.17 107.3 1269.5 139.47 1243.91 170.77 1270.55 201.09 1330.4 231.07 1365.99 261.05 1344.52 290.56 1295.34 320.52 1282.09 351.12 1326.96 381.61 1378.43 412.97 1373.96 445.24Q1373.96 445.24 1373.96 445.24" opacity="0.42"></path><path d="M1319.3 445.33C1269.06 475.71 1229.87 505.22 1242.72 533.74 1291.08 562.17 1317.68 589.43 1291.14 615.29 1234.89 640.83 1199.19 664.71 1210.68 686.74 1250.56 708.32 1271.09 727.97 1246.16 745.71 1190.25 763.35 1141.88 779.55 1129.76 794.78 1152.6 811.08 1179.35 827.6 1179.67 845.14 1144.72 865.5 1088.38 888.19 1037.58 913.76 1012.23 942.9 1014.48 974.81 1029.75 1008.86 1041.13 1044.16 1031.48 1078.98 998.53 1111.39 949.09 1140.07 895.8 1162.89 850.24 1178.4 810.17 1188.36 791.87 1176.29 780.17 1169.45 763.89 1172.61 739.14 1182.82 708.16 1200.52 672.53 1225.45 634.52 1253.75 596.36 1281.45 557.31 1305.27 519.93 1320.4 484.79 1324.16 449.72 1317.63 416.94 1301.05 386.56 1278.03 356.18 1255.37 328.93 1236.71 304.84 1225.58 280.81 1224.84 259.9 1232.33 241.66 1245.26 222.53 1261.45 204.27 1274.82 184.79 1281.66 160.67 1280.91 131.46 1269.96 95.1 1249.63 52.44 1222.78 4.56 1191.3 -44.3 1158.51 -87.04 1127.96 -118.6 1101.3 -133.78 1079.84 -131 1059.97 -147.52 1044.3 -214.74 1038.19 -269.83 1031.98 -309.99 1021.5 -320.5 1006.38 -305.57 987.59 -283.05 964.19 -279.74 936.96 -311.68 906.97 -367.87 874.52 -417.8 840.57 -432.77 805.66 -409.16 770.43 -375.51 735.43 -372.85 700.64 -413.16 666.52 -470.18 633.2 -498.8 600.38 -477.61 568.26 -433.08 536.74 -418.27 505.56 -453.81 474.71 -508.18 444.11 -527.03 413.61 -490.92 383.16 -440.68 352.79 -435.16 322.41 -478.43 292.83 -519.9 264.16 -513.12 235.6 -461.53 208.14 -415.69 182.04 -417.36 156.27 -456.52 132.13 -486.49 109.83 -472.5 88.05 -419.48 68.22 -368.11 50.37 -354.22 32.73 -377.8 16.63 -407.19 1.66 -410.05 -14.26 -373.3 -30.23 -315.99 -47.06 -268.36 -66.64 -251.14 -88.46 -261.66 -113.13 -282.85 -141.46 -289.14 -172.7 -268.51 -206.3 -223.85 -241.46 -168.76 -276.47 -119.92 -309.42 -81.69 -350.89 -80.19 -391.12 -67.48 -389.05 -43.31 -383.35 -7.79 -376.62 34.36 -372.04 80.38 -373.97 125.45 -382.8 167.18 -399.2 206.04 -423.17 240.63 -451.05 272.07 -478.96 301.18 -503.61 329.11 -520.04 357.13 -525.32 384.56 -520.19 413.25 -504.61 443.63 -481.95 474 -458.93 505.34 -439.27 537.08 -426.73 568.23 -424.48 598.6 -430.67 626.77 -442.78 663.46 -465.65 708.37 -476.11 719.43 -452.22 729.91 -426.27 745.72 -395.2 771.43 -362.31 808.98 -331.19 856.62 -303.59 908.86 -281 971.75 -259.38 987.52 -241.69 975.98 -235.63 995.16 -229.87 1039.37 -220.07 1096.42 -205.74 1142.81 -187.85 1159.42 -165.33 1143.41 -138.88 1117.73 -109.6 1110.42 -77.69 1140.37 -44.13 1196.85 -9.47 1245.19 25.64 1253.56 60.65 1224.46 95.55 1191.21 129.84 1194.36 163.38 1241.47 196.46 1295.14 228.84 1308.53 260.59 1274.41 292.02 1231.76 323.06 1231 353.8 1278.47 384.44 1324.82 414.96 1319.3 445.33Q1319.3 445.33 1319.3 445.33" opacity="0.56"></path><path d="M1263.96 414.33C1216.97 442.81 1176.89 469.87 1181.23 495.47 1223.72 521.05 1258.92 545.14 1250.8 567.71 1203.94 590.27 1155.19 611.37 1140.75 631.09 1166.28 651.04 1201.31 669.93 1210.16 688.07 1180.08 707.09 1126.29 726.08 1080.75 745.55 1066.67 766.9 1082.71 789.6 1107.3 814.11 1117.39 841.14 1097.07 870.25 1051.71 901.27 998.15 933.92 955.94 967.25 935.48 1000.16 936.99 1031.65 948.68 1060.16 956.73 1084.18 952.79 1103.41 930.46 1116.45 893.05 1122.97 846.29 1124.96 798.49 1122.32 755.96 1116.86 721.52 1112.52 696.52 1110.14 678.69 1111.99 667.11 1120.91 657.17 1136.19 646.02 1157.3 634.82 1183.33 619.82 1210.56 600.96 1235.5 580.66 1255.7 557.21 1267.37 531.47 1268.69 505.22 1261.15 477.64 1245 449.16 1223.33 420.68 1201.98 391.99 1183.83 362.77 1171.93 333.04 1169.05 301.84 1173.64 268.43 1183.79 233.58 1198.19 195.83 1211.71 155.37 1221.05 114.84 1225.05 74.21 1220.53 36.44 1207.32 4.92 1187.18 -18.19 1160.8 -30.52 1130.68 -34.74 1099.87 -32.34 1070.1 -29.46 1043.21 -35.94 1021.08 -56 1003.5 -92.8 990.14 -141.6 981.45 -192.4 975.11 -231.23 969.69 -244.76 962.5 -215.46 933.92 -260.89 909.4 -315.13 889.26 -358.77 865.86 -370.08 839.81 -349.95 811.93 -319.37 782.3 -310.16 751.6 -339.88 720.08 -393.45 688.19 -435.06 656.33 -436.69 624.31 -401.53 592.62 -365.66 561.48 -368.54 530.38 -412.12 499.85 -460.24 470 -470.22 440.17 -433.02 410.97 -386.03 382.49 -378.51 354.01 -416.02 326.94 -459.14 301.3 -465.18 275.68 -424.95 251.56 -373.49 228.95 -353.66 206.39 -376.38 185.31 -414.24 165.68 -429.78 145.86 -402.56 127.18 -349.23 109.35 -304.41 90.7 -293.2 72.2 -313.04 53.32 -341.6 32.62 -348.6 10.63 -322.39 -13.12 -272.26 -39.45 -220.25 -67.91 -186.81 -98.41 -180.4 -130.72 -192.91 -163.94 -207.68 -197.01 -211.28 -228.92 -193.1 -258.12 -155.49 -283.06 -106.34 -303.33 -57.14 -317.45 -16.76 -324.98 17.77 -326.65 33.81 -313.85 43.95 -313 57.71 -320.65 78.94 -334.68 105.98 -354.75 137.29 -380.15 171.3 -407.28 205.99 -432.66 241.82 -453.81 276.54 -466.78 309.4 -469.54 342.34 -463.27 373.15 -448.01 401.62 -426.66 430.1 -404.99 455.57 -385.94 478.1 -372.77 500.71 -368.46 520.65 -371.75 538.52 -380.96 557.53 -394.9 576.28 -408.54 596.63 -418.5 621.27 -423.54 650.61 -420.28 686.2 -408.32 726.94 -389.3 772.01 -363.71 817.8 -333.98 858.25 -303.12 889.17 -272.88 905.76 -245.22 905.86 -212.75 907.64 -175.89 959.03 -166.54 1011.12 -162.13 1059.18 -156.36 1086.4 -148.26 1086.58 -138.54 1066.29 -125.26 1045.8 -108.4 1049.25 -89.02 1083.84 -66.33 1137.8 -40.92 1183.04 -13.63 1195.04 15.49 1171.1 45.82 1138.64 77.03 1129.96 108.71 1161.57 140.44 1215.5 172.38 1251.82 204.04 1242.97 235.18 1202.51 266.31 1170.65 296.88 1182.33 326.77 1231.08 356.63 1271.48 385.86 1263.96 414.33Q1263.96 414.33 1263.96 414.33" opacity="0.20"></path><path d="M1208.95 373.08C1165.44 399.66 1124.93 425.05 1121.04 449.25 1155.41 473.5 1194.8 496.67 1203.85 518.87 1173.23 541.29 1122.9 563 1087.14 584.2 1087.37 606.01 1115.71 627.77 1144.74 649.79 1149.64 672.97 1120.13 696.94 1070.38 721.99 1024.76 748.58 1002.93 776.5 1007.98 805.73 1029.76 836.1 1046.92 867.22 1044.14 898.44 1017.58 929.15 972.91 958.43 923.95 985.15 871.17 1018.63 859.77 1055.48 865.08 1058.44 857.87 1056.84 838.01 1053.29 807.67 1049.59 769.63 1049.05 728.2 1051.94 687.27 1059.58 647.94 1073.62 612.92 1092.73 582.18 1115.77 555.03 1141.57 530.82 1166.77 508.08 1188.44 487.03 1204.95 465.64 1213.37 442.99 1212.57 420.67 1204.25 396.36 1188.64 369.78 1168.34 343.2 1148.32 314.99 1130.79 285.53 1118.36 256.42 1113.63 226.8 1115.49 197.72 1122.77 170.33 1134.82 145.31 1147.5 124.24 1157.99 100.66 1165.7 80.96 1136.58 73.63 1101.7 60.32 1073.88 37.81 1044.53 4.06 1015.55 -38.56 988.9 -85.39 965.16 -128.26 944.86 -164.67 922.5 -145.1 894.91 -144.18 884.4 -172.79 877.62 -219.54 869 -268.99 858.11 -301.72 845.93 -305.64 830.97 -283.73 813.39 -257.69 794.22 -249.84 772.72 -274.22 749.33 -322.73 724.79 -368.38 698.92 -383.6 672.16 -362.85 644.81 -325.22 617.02 -304.85 589.12 -324.16 561.02 -371.37 533.05 -411 505.45 -412.36 477.81 -374.55 450.63 -331.04 424.05 -322.33 397.47 -354.29 372.13 -396.96 348 -413.31 323.83 -386.5 300.78 -336.86 278.77 -301.24 256.53 -302.37 235.09 -332.81 214.22 -365.17 192.76 -368.7 171.43 -336.58 149.9 -285.91 127.23 -244.08 103.82 -230.08 79.35 -245.12 53.29 -270.47 25.88 -283.71 -2.9 -272.15 -32.97 -234.72 -63.91 -185.03 -95.15 -139.68 -126.07 -111.88 -155.77 -104.3 -183.13 -118.86 -217.85 -108.13 -257.47 -58.41 -261.43 -13.99 -260.12 30.5 -256.53 70.08 -252.41 102.63 -251.14 126.97 -253.01 144.93 -259.48 157.14 -272.35 167.43 -290.43 178.25 -312.75 188.52 -338.24 201.78 -363.61 218.35 -385.92 235.88 -403.45 256.45 -413.15 279.47 -413.67 302.88 -406.5 328.04 -391.67 354.62 -371.65 381.2 -351.35 408.56 -333.04 436.92 -319.47 465.67 -313.4 496.11 -314 528.71 -320.25 562.26 -331.66 598.24 -344.17 636.19 -354.97 673.59 -363.02 710.51 -364.82 744.36 -359.38 772.46 -347.54 793.03 -328.76 804.13 -304.52 808.19 -277.12 806.05 -247.81 802.6 -218.54 806.32 -191.29 820.93 -166.74 850.37 -145.52 892.75 -128.56 941.23 -114.87 984.62 -103.77 1014.57 -92.05 981.07 -70.09 993.27 -55.28 1034.18 -43.54 1085.28 -29.09 1124.04 -12.05 1133.74 6.53 1113.57 27.48 1082.39 50.36 1069.75 74.4 1090.59 99.85 1137.94 126.26 1183.38 153.28 1197.2 180.81 1171.84 208.51 1132.46 236.44 1113.47 264.28 1135.07 291.79 1183.01 319.36 1217.66 346.51 1208.95 373.08Q1208.95 373.08 1208.95 373.08" opacity="0.54"></path><path d="M1153.95 350.5C1113.96 375.18 1073.84 399.43 1062.77 423.27 1087.68 447.18 1126.52 470.81 1148.66 494.26 1137.16 517.98 1096.34 541.78 1050.7 565.8 1025.92 590.37 1031.89 615.47 1058.28 641.21 1084.97 667.68 1089.69 694.94 1065.83 722.93 1022.01 751.45 975.79 780.4 944.13 809.4 935.67 838.01 946.33 865.77 963.76 891.94 976.22 916.19 971.69 937.65 948.12 955.56 909.73 970.31 864.89 980.9 822.91 987.23 769.8 989.09 751.31 995.63 728.22 1012.69 704.97 1030.63 676.88 1052.03 646.15 1075.5 613.19 1099.86 580.17 1122.25 548.22 1140.34 516.14 1153.22 485.82 1158.67 457.43 1156.05 429.17 1147.2 402.68 1132.24 378 1113.32 353.32 1094.64 331.04 1077.87 311.22 1065.15 283.01 1058.56 239.08 1077.53 220.91 1093.45 206.87 1102.59 191.12 1107.2 171.6 1106.09 146.54 1099.75 115.6 1087.01 78.68 1068.61 38.57 1046.25 -2.49 1020.54 -39.72 993.06 -68.07 965.56 -84.29 938.86 -86.69 913.94 -80.02 891.88 -69.08 872.5 -63.03 855.72 -71.81 842.12 -98.08 830.42 -139.68 819.96 -205.32 806.97 -224.52 779.15 -191.56 761.73 -189.71 748.93 -214.54 734.17 -259.33 717.54 -303.81 700.13 -325.84 681.02 -314.99 660.48 -283.28 639.37 -254.24 617.15 -252.27 594.08 -283.94 570.73 -330.04 546.8 -359.83 522.52 -353.64 498.15 -316.02 473.57 -276.03 448.89 -266.39 424.21 -292.87 400.02 -333.48 376.31 -357.65 352.52 -344.85 329.08 -303.11 305.88 -259.52 282.41 -239.99 258.91 -252.33 235.24 -284.48 211 -309.5 186.28 -307.75 160.92 -276.88 134.78 -229.81 107.83 -188.04 80.11 -168.11 51.77 -173.03 22.9 -192.46 -6.13 -212.09 -34.91 -215.35 -62.99 -196.55 -89.64 -159.25 -114.49 -113.3 -136.68 -70.81 -155.42 -33.69 -185.41 -19.68 -190.02 18.38 -188.78 53.45 -192.4 91.63 -199.76 129.69 -211.51 166.85 -228.5 200.62 -249.17 230.77 -272.24 258.06 -296.59 282.57 -319.38 305.45 -338.25 326.79 -352.19 348 -358.85 369.91 -357.45 391.47 -349.61 414.46 -335.34 439.14 -316.66 463.82 -297.74 489.61 -280.28 516.12 -266.54 542.28 -259.05 568.44 -257.23 593.64 -260.59 617.31 -269.16 638.52 -279.76 656.01 -290.19 675.67 -302.4 692.79 -293.83 700.01 -270.54 712.15 -248.93 732.09 -223.69 761.83 -196.39 799.99 -168.79 843.31 -141.72 885.59 -116.21 919.11 -93.4 938.37 -73.19 940.34 -55.58 922.63 -34.94 932.6 -4.03 993.3 9.88 1052.85 24.11 1036.12 61.07 1009.85 84.59 1026.2 101.62 1067.29 120.36 1113.36 140.56 1139.62 161.32 1131.88 183.24 1097.82 206.07 1065.6 229.16 1060.07 252.9 1089.12 277.06 1134.61 301.3 1163.59 325.82 1153.95 350.5Q1153.95 350.5 1153.95 350.5" opacity="0.76"></path><path d="M1099.21 362.05C1062.89 384.83 1023.82 407.94 1006.61 431.33 1021.28 454.77 1055.35 478.56 1085.22 502.72 1091.9 527.01 1068.24 551.77 1026.12 576.98 986.34 602.38 966.5 628.24 971.86 654.46 995.76 680.72 1020.06 707.12 1028.84 733.38 1015.26 759.15 980.93 784.24 937.39 808.15 897.87 830.71 872.95 851.33 865.65 869.46 880.74 891.84 892.06 917.34 858.62 921.1 822.55 921.94 782.6 921.55 744.22 920.89 710.55 922.18 684.33 925.19 665.33 930.83 653.22 940.64 645.25 953.96 638.84 970.69 634.15 990.94 627.57 1013.01 618.12 1035.49 607.44 1057.41 593.41 1076.44 576.5 1090.84 558.44 1100.27 538.36 1103.08 516.95 1098.99 495.19 1089.84 472.77 1075.62 449.99 1058.11 427.2 1040.79 404.61 1024.86 381.99 1012.08 359.02 1004.57 335.38 1001.8 310.48 1003.49 284.42 1009.96 256.25 1018.69 225.6 1028 193.71 1037.54 159.83 1044.37 125.04 1047.24 91.97 1046.4 61.44 1040.19 36.14 1028.72 17.74 1013.12 7.64 993.3 6.21 970.32 9.47 945.61 15.51 919.76 18.99 893.82 13.04 868.86 -4.66 845.22 -35.43 823.29 -75.51 803.69 -117.89 786.02 -152.91 770.05 -172.73 749.92 -131.21 715.31 -131.83 698.45 -160.93 687.44 -203.79 675.4 -244.39 662.18 -266.45 648.85 -261.44 634.16 -234.52 618.1 -205.25 601.82 -192.47 584.22 -207.94 565.42 -246.6 546.46 -287.38 526.41 -306.56 505.38 -293.85 484.31 -257.09 462.35 -220.77 439.57 -210.75 416.79 -232.17 393.72 -269.4 370.42 -298.45 347.07 -298.43 323.4 -268.55 299.39 -225.48 275.23 -191.69 250.62 -182.8 225.57 -200.41 200.29 -229.35 174.53 -249.97 148.37 -249.19 122.12 -222.92 95.66 -180.98 69.26 -138.74 43.26 -110.32 17.85 -101.85 -6.48 -111.92 -29.55 -129.65 -50.77 -143.09 -69.58 -144.57 -86.21 -128.5 -99.81 -97.46 -110.08 -57.25 -118.01 -15.89 -122.8 19.79 -124.74 59.82 -125.78 73.58 -146.97 93.56 -169.01 113.57 -188.58 137.97 -210.24 165.01 -232.63 194.22 -254.81 223.91 -274.41 252.99 -289.67 282.44 -300.15 310.49 -304.09 336.85 -301.08 363.17 -292.81 387.78 -279.19 410.56 -261.87 433.35 -244.36 453.76 -227.83 471.81 -214.17 497.66 -203.63 539.16 -212.01 557.53 -225.14 571.83 -234.77 587.89 -242.01 607.36 -245.56 631.53 -245.59 660.7 -240.35 694.91 -229.84 731.89 -215.15 770.03 -196.09 805.56 -173.66 834.15 -149.28 852.89 -123.53 859.42 -97.46 856.33 -72.18 846.25 -48.04 835.9 -25.51 834.72 -5.22 847.09 13.16 875.47 29.82 915.81 44.29 958.9 57.58 992.69 70.13 1004.77 86.94 954.21 121.39 966.28 140.66 1003.59 153.92 1047.37 168.52 1077.84 184.45 1081.8 200.58 1058.89 218.02 1024.61 236.69 1003.52 255.5 1010.21 275.43 1043.76 296.37 1085.5 317.36 1109.23 339.27 1099.21 362.05Q1099.21 362.05 1099.21 362.05" opacity="0.35"></path><path d="M1043.95 400.24C1010.97 421.12 973.89 442.58 952.62 464.53 957.99 486.48 984.45 508.91 1015.84 531.7 1035.46 554.46 1030.55 577.53 1002.34 600.74 962.53 623.77 926.71 646.77 907.47 669.49 909.84 691.71 927.84 713.31 949.72 733.92 964.67 753.58 962.5 771.79 941.79 788.2 907.25 803.16 867.27 815.94 831.2 826.3 803.16 844.22 809.9 854.63 784.14 858.78 756.59 864.61 724.28 872.68 690.36 883.4 656.2 897.59 624.52 914.37 596.2 933.27 571.02 954.09 549.28 975.29 530.09 995.58 513.26 1014.33 497.48 1029.69 481.78 1040.45 466.96 1046.73 451.18 1047.27 433.93 1042.05 416.84 1032.81 397.93 1019.44 377.04 1003.34 356.16 987.4 333.8 972.42 310.21 959.81 286.78 951.4 262.49 946.82 237.92 946.04 214.24 949.65 191.33 955.73 170.27 963.15 129.72 981.29 112.74 965.93 107.62 942.76 95.64 923.51 75.66 901.83 46.97 878.58 11.76 854.69 -26.47 830.54 -62.12 806.75 -89.14 783.92 -103.26 762.15 -102.49 741.6 -82.71 713.79 -71.62 665.76 -114.23 644.29 -172.24 624.36 -192.38 583.8 -153.25 562.12 -136.82 547.55 -141.88 532 -169.56 515.41 -209.01 498.85 -241.62 481.21 -251.12 462.49 -233.98 443.76 -199.02 423.95 -166.04 403.07 -155.22 382.19 -171.32 360.72 -204 338.77 -235.53 316.82 -246.71 294.38 -231.05 271.56 -195.89 248.76 -156.64 225.63 -129.99 202.31 -125.93 179.14 -142.03 155.96 -166.92 133.01 -187.71 110.51 -191.21 88.56 -173.85 67.53 -140.16 47.43 -99.74 28.7 -63.94 11.74 -49 -25.65 -54.46 -53.38 -15.72 -55.11 19.71 -56.51 56.62 -58.09 90.95 -60.58 120.6 -65.65 143.75 -72.88 160.84 -82.72 172.13 -96.07 179.93 -112.1 186.31 -130.41 190.96 -150.87 196.96 -171.96 205.21 -192.43 214.17 -211.64 225.97 -227.7 240.36 -239.36 255.59 -246.64 272.85 -248.21 291.64 -243.94 310.71 -235.46 330.8 -222.59 351.68 -206.66 372.57 -190.56 393.75 -175.07 415.36 -161.69 437.24 -152.34 460.06 -146.73 484.21 -144.95 509.21 -147.66 536.1 -153.04 565.02 -160 594.66 -168.52 625.75 -176.11 657.29 -181.63 687.1 -185.23 714.59 -184.98 737.6 -180.55 754.8 -172.64 764.94 -160.48 767.48 -144.57 765.33 -125.95 759.51 -104.75 753.95 -81.78 754.71 -58.01 764.13 -33.81 784.93 -9.82 816.5 13.35 854.91 35.57 893.46 56.62 924.06 76.14 940.44 94.45 939.4 111.67 915.26 134.99 901.62 177.68 947.97 198.5 1003.02 219.02 996.11 263.4 954.36 287.84 946.76 304.43 964.07 322.08 999.72 340.81 1036.54 359.54 1054.76 379.34 1043.96 400.23Q1043.95 400.24 1043.95 400.24" opacity="0.86"></path><path d="M988.95 438.02C959.44 457.01 924.85 476.25 900.75 495.66 897.56 515.03 914.56 534.5 942.34 553.93 968.63 573.21 979.76 592.3 970.25 611 943.05 629.38 906.59 647.14 872.59 664.05 848.32 687.98 882.39 728.21 899.95 743.71 896.13 752.6 877.82 759.8 848.47 765.33 813.15 770.39 778.09 774.19 748.39 777.03 718.63 788.48 721.56 822.93 710.47 843.79 696.5 860.72 677.67 879.09 655.41 898.3 630.43 918.06 604.15 937.07 577.76 954.29 550.81 969.43 524.84 981.06 500.23 988.41 475.82 991.91 452.84 990.59 431.28 984.57 409.84 975.45 389.62 963.02 370.63 948.34 351.65 933.8 334.35 919.86 318.81 907.62 279.7 894 238.88 909.31 227.24 918.5 216.6 923.51 203.35 925.95 186.15 925.35 164.24 922.29 137.63 915.68 106.8 905.67 74.07 893.07 41.2 877.57 11.53 859.69 -11.57 840.23 -25.78 819.32 -29.41 797.52 -24.59 775.41 -13.23 753.19 -0.33 731.24 6.6 709.85 3.77 689.1 -12.17 669.09 -40.69 650 -76.69 631.62 -112.18 613.89 -138.41 597 -148.72 580.53 -140.95 564.31 -108.82 540.86 -91.58 493.82 -135.29 469.52 -170.4 453.3 -192.99 436.45 -193.56 418.92 -173.21 401.43 -140.55 383.19 -111.04 364.2 -100.01 345.22 -111.45 325.94 -138.91 306.45 -170.08 287 -188.97 267.42 -186.79 247.84 -164.28 228.39 -129.14 209.09 -94.32 190.13 -71.66 171.5 -66.92 153.42 -78.44 136.15 -110.25 111.66 -113.5 70.18 -70.08 54.07 -33.43 44.83 -0.41 37.32 23.55 31.54 26.67 19.81 21.82 3.53 48.74 -6.45 74.93 -16.21 104.7 -27.99 135.58 -41.86 166.69 -58.2 195.81 -76.11 222.22 -95.04 246.23 -114.74 267.38 -133.9 286.3 -151.51 303.26 -167.24 319.11 -179.63 334.61 -187.87 349.28 -192.29 364.51 -191.89 380.76 -186.68 396.82 -178.2 414.27 -166.19 433.25 -151.65 452.24 -136.97 472.31 -122.62 493.22 -109.74 513.96 -99.96 535.17 -93.05 556.3 -89.22 586.26 -90.53 635.21 -106.06 650.38 -115.23 659.4 -120.06 680.22 -86.7 710.55 -61.96 739.95 -42.96 773.96 -22.37 808.87 -0.77 839.61 21.26 862.02 43.53 872.35 65.63 870.81 87.26 858.92 108.32 842.05 128.69 829.18 148.19 825.99 166.98 837.41 185.12 863.81 202.44 899.48 219.31 935.11 235.89 960.54 251.87 968.16 267.83 956.21 283.9 919.07 307.68 908.23 357.11 955.4 383.19 986.61 400.76 999.98 419.04 988.95 438.02Q988.95 438.02 988.95 438.02" opacity="0.20"></path><path d="M933.96 449.4C907.88 466.49 876.3 483.27 850.89 499.67 840.77 516.04 847.95 531.98 868.25 547.37 916.02 577.77 913.99 605.29 858.11 628.89 800.04 651.1 785.05 668.73 807.07 681.6 832.06 694.09 820.91 703.75 773.81 712.53 711.26 725.85 658.91 742.66 627.49 764.82 616.7 794.6 613.69 828.86 607.02 864.26 597.33 897.94 576.88 923.18 548.64 934.88 533.44 936.04 517.25 933.28 500.5 926.79 483.55 917.99 466.43 906.57 449.35 893.33 432.26 880.2 415.61 867.39 399.27 855.74 382.74 846.55 366.15 839.55 349.12 834.94 312.91 835.06 271.19 842.03 221.67 851.2 169.12 861.4 115.85 864.26 73.97 857.33 52.72 842.58 56.01 817.64 73.78 785.2 76.09 748.5 46.72 708.8 -13.84 668.61 -71.44 629.05 -87.1 590.8 -54.07 554.24 -23.25 519.14 -40.67 484.95 -101.62 451.22 -128.52 434.55 -140.73 417.82 -133.99 401 -111.96 384.21 -82.11 367.26 -56.03 350.17 -45.04 333.09 -52.33 316.26 -74.19 299.77 -102.77 283.32 -125.8 267.26 -134.55 251.7 -102.38 220.98 -38.37 193.01 -6.87 168.88 -28.87 146.23 -62.1 128.2 -59.91 115.09 -14.3 102.61 49.83 93.26 98.02 85.17 115.01 72.82 110.3 57.24 104.33 36.42 106.28 7.77 127.75 -25.73 163.6 -60.97 208.69 -95.2 256.13 -121.62 300.45 -134.93 322.65 -136.91 343.63 -134.94 363.3 -129.14 382.92 -120.86 401.3 -109.79 418.39 -96.66 435.48 -83.42 450.86 -70.27 464.52 -58.08 484.04 -44.32 527.46 -36.39 548.96 -47.92 572.32 -58.27 607.13 -61.89 657.85 -56.09 716.48 -42.67 770.26 -18.96 798.06 12.49 794.65 48.5 771.03 87.9 761 128.07 794.39 167.88 858.27 206.53 905.32 243.53 898.87 279.15 854.31 313.8 835.32 347.84 850.67 364.68 878.73 381.54 910.69 398.45 935.93 415.32 944.94 432.32 933.96 449.4Q933.96 449.4 933.96 449.4" opacity="0.54"></path><path d="M878.95 426.5C828.51 456.87 788.36 484.46 796.95 509.01 840.46 533.39 865.15 554.5 842.42 572.18 787.22 589.83 736.85 604.58 718.13 617.13 732.38 631.43 753.58 645.7 757.82 661.45 737.8 681.98 694.78 706.05 643.32 733.84 592.76 765.73 552.07 798.65 521.27 829.33 498.84 856.03 479.65 873.89 458.97 879.87 439.69 876.23 415.36 861.36 384.99 838.34 354.61 815.68 319.63 795.64 281.62 781.63 245.01 777.36 208.95 779.2 178.73 784.47 152.23 795.98 155.66 787.12 135.57 760.29 91.52 735.26 34.3 705.15 -11.57 672.1 -24.47 637.47 -1.34 602.04 31.58 567.03 32.04 532.15 -9.92 498.13 -65.15 465.35 -85.48 432.76 -51.48 401.12 -1.04 370.74 5.07 340.36 -35.67 312.69 -74.07 287.99 -68.44 263.49 -17.63 242.26 35.34 224.49 43.02 199.56 15.76 159.57 81.39 138.04 136.47 118.55 178.09 95.55 202.18 68.69 210.21 37.4 212.9 4.66 218.75 -26.36 226.27 -53.9 242.49 -73.02 265.67 -80.48 290.98 -78.2 319.81 -64.31 350.18 -41.66 380.56 -18.64 411.05 2.38 443.02 17.74 477.12 23.49 516.16 22.92 561.28 18.49 608.07 10.08 655.4 4.39 694.2 4.13 716.92 7.97 718.92 19.91 703.65 39.2 692.26 63.25 699.41 92.59 737.44 125.11 794.81 159.38 841.12 194.65 846.18 229.63 815.48 264.59 781.95 298.74 788.03 331.65 838.15 364.38 885.07 396.11 878.96 426.49Q878.95 426.5 878.95 426.5" opacity="0.72"></path><path d="M824.11 385.04C780.7 411.62 739 435.58 731.21 456.92 760.26 478.4 795.03 497.58 804.65 514.78 780.1 532.79 731.46 549.8 683.69 566.58 655.41 585.61 650.94 605.88 660.33 628.02 674.5 653.41 677.49 680.92 665.13 709.73 639.95 739.5 604.58 767.66 565.86 791.61 525.08 810.82 487.16 821.9 453.4 823.25 420.51 817.59 390.89 803.5 364.32 783.2 337.74 763.18 315.45 744.47 298.22 729.65 276.64 720.6 254.6 727.38 234.62 731.71 206.01 732.46 164.87 727.83 115.86 717.63 71.63 704.09 44.6 685.38 45.19 662.74 65.29 637.89 90.09 610.61 95.16 582.2 66.06 553.03 16.16 523.66 -23.14 494.9 -25.6 466.03 10.7 438.05 54.11 411.47 62.58 384.89 32.36 360.97 -6.65 339.72 -22.04 318.35 3.78 299.37 53.48 282.47 97.55 264.83 115.25 248.34 107.04 232.23 84.42 213.9 70.82 194.45 77.76 173.16 104.79 148.52 146.8 121.64 192.5 93.22 236.2 63.52 271.88 35.06 299.88 10.42 321.47 -9.77 340.2 -22.07 359.63 -24.69 377.72 -20.14 399.56 -6.82 426.14 13.19 452.71 33.49 482.78 52.97 514.81 68.89 545.5 77.81 575.13 81.85 599.6 82.12 621.71 75.49 616.35 72.1 622.23 83.55 650.13 96.24 695.24 114.13 745.54 136.06 781.42 160.25 787.56 187.01 762.98 215.06 732.75 243.92 722.05 273.09 747.7 301.74 796.97 330.52 832.58 358.46 824.11 385.04Q824.11 385.04 824.11 385.04" opacity="0.18"></path><path d="M768.95 354.15C732.46 376.93 692.72 398.49 673.29 418.82 683.87 439.38 711.99 459.17 737.13 478.44 745.37 498.57 727.38 518.95 690.44 539.92 646.65 562.41 608.7 586.03 583.61 610.64 573.35 636.48 572.91 662.65 575.4 688.02 578.72 722.95 547.02 764.89 516.32 765.52 493.49 758.75 470.02 745.85 447.24 728.34 424.46 711.02 403.44 694.09 383.31 679.37 361.85 669.56 338.78 663.06 312.03 659.47 281.44 660.09 245.71 661.53 206.38 662.46 152.65 663.73 117.62 648.44 143.16 630.48 156.38 615.76 153.93 598.1 129 578.32 87.15 557.68 46.08 535.7 26.7 513.08 37.34 490.24 72.46 467.19 108.95 444.41 119.31 421.63 99.74 400.19 66.04 380.06 38.74 359.72 38.65 340.26 66.37 321.41 109.2 301.72 150.13 281.86 175.95 261.47 181.53 239.51 173.11 216.42 161.12 192.25 150.77 166.7 152.01 140.65 165.51 115.17 188.5 90.53 218.81 68.66 251.54 51.34 286.18 38.22 318.88 31.76 348.3 32.78 377.32 38.71 403.3 51.02 426.09 68.34 448.87 85.85 467.37 103.36 481.31 118.93 499.23 133.57 518.8 141.73 534.53 140.74 556.14 139.09 587.6 139.93 627.81 143.95 687.37 153.74 710.88 193.62 674.5 221.54 663.48 241.74 676.54 263.4 712.63 285.81 755.12 308.44 779.31 331.37 768.95 354.15Q768.95 354.15 768.95 354.15" opacity="0.60"></path><path d="M713.95 354.94C684.44 373.93 649.26 393.14 623.58 412.43 617.32 431.86 628.92 451.63 649.87 471.71 672.09 492.21 682.87 513.3 677.83 534.82 658.52 556.79 627.97 579.11 593.17 601.25 558.63 623.13 529.11 644.01 506 662.92 483.13 686.91 454.88 710.02 438.76 706.4 427.38 699.33 412.36 688.01 393.38 673.34 374.39 658.8 352.35 644.04 327.91 630.27 303.79 619.54 278.14 610.71 252.78 603.84 207 596.73 218.2 585.68 221.76 575.7 207.04 567.72 179.22 557.28 143.09 544.62 108.22 531.53 85.82 516.54 84.75 500 103.1 483.32 134.44 465.37 163.95 446.38 174.98 427.4 164.77 408.28 140.31 389.16 111.72 369.89 94.93 350.35 97.13 330.54 117.14 310.29 150.33 289.47 186.96 268.2 219.29 246.39 241.9 224.18 254.09 202.04 256.16 180.03 253.45 158.87 250.53 139.52 247.75 114.61 271.47 89.03 294.96 91.44 312.48 97.89 331.18 108.8 350.17 123.34 369.15 138.01 387.52 153.18 405.8 167.57 424.99 179.08 445.78 188.76 469.37 196.49 495.44 200.94 525.29 204.18 558.04 206.85 630.42 213.04 618.08 240.14 603.91 257.63 615.63 270.45 643.22 285.21 679.13 301.58 710.92 318.1 724.98 335.96 713.95 354.94Q713.95 354.94 713.95 354.94" opacity="0.69"></path><path d="M658.95 387.01C608.51 417.38 565.61 451.02 564.71 486 597.15 520.97 617.25 556.63 604.95 589.42 566.99 618.96 515.99 641.05 469.36 650.95 425.45 652.8 389.07 641.36 358.7 618.34 328.32 595.68 306.82 572.88 298.09 553.7 292.08 542.69 295.68 533.7 293.82 524.21 266.31 517.73 213.99 506.21 159.29 488.57 137.92 470.85 168.51 446.53 218.95 416.15 225.07 385.78 188.72 352.22 157.4 317.31 161.06 282.31 206.64 246.41 262.58 213.08 309.09 182.76 337.58 159.53 357.06 148.27 369.38 145.19 388.32 155.68 418.69 178.33 449.07 201.35 488 225.11 528.32 245.52 570.95 262.95 550.91 291.18 562.82 314.72 616.4 332.38 665.07 356.62 658.96 387Q658.95 387.01 658.95 387.01" opacity="0.22"></path><path d="M604.05 428C567.63 450.78 526.25 475.39 502.22 499.97 523.17 560.89 479.18 585.89 443.82 563.25 421.04 545.93 402.79 527.01 385.76 508.9 363.98 494.86 335.35 481.58 297.29 468.6 235.68 452.05 221.56 406.73 274.05 374.62 284.28 351.84 267.75 327.09 241.31 302.23 218.27 277.94 218.45 254.74 239.57 235.26 273.73 218.37 312.77 207.49 347.85 204.84 381.79 206.24 410.35 215.93 433.13 233.25 455.91 250.76 470.76 270.25 476.3 289.13 480.7 304.11 477.21 318.3 472.91 332.04 481.65 343.14 505.64 356.02 545.37 371.52 588.51 386.42 614.28 405.22 604.05 428Q604.05 428 604.05 428" opacity="0.69"></path><path d="M548.95 449.67C498.51 480.04 450.23 507.72 432.06 524.05 437.63 535.93 432.34 531.36 401.96 508.34 371.58 485.68 321.88 457.38 276.49 430.35 254.85 407.87 278.51 381.19 328.95 350.81 321.3 306.28 307.18 263.84 351.61 288.34 381.98 311.36 408.88 340.56 448.22 368.48 502.91 391.96 555.07 419.29 548.95 449.67Q548.95 449.67 548.95 449.67" opacity="0.57"></path></g></svg>